<?xml version="1.0" encoding="UTF-8"?>
<svg id="Layer_2" xmlns="http://www.w3.org/2000/svg" viewBox="0 0 399.46 119.25">
  <g id="Layer_1-2" data-name="Layer_1">
    <g>
      <path d="M139.02,26.12h19.86c.05.51.13,1,.13,1.49,0,8.76.06,17.52-.04,26.28-.03,2.67-.32,5.37-.84,7.99-1.06,5.38-3.46,10.01-8.38,13.02.13.2.19.41.31.47,7.65,3.58,10.54,10.05,10.79,18,.31,10.16-4.34,17.39-13.48,21.67-8.46,3.96-17.5,4.55-26.66,4.06-5.91-.31-11.7-1.29-17.16-3.7-10.38-4.58-15.39-12.76-15.98-24.08.5-.07.98-.2,1.46-.2,5.7-.01,11.4-.04,17.1.03.58,0,1.59.51,1.68.93,1.34,6.39,5.62,9.31,11.73,10.07,4.53.56,9.08.67,13.52-.63,6.27-1.84,9.34-7.08,7.51-12.76-.27-.83-.71-1.64-1.2-2.37-1.19-1.77-2.61-2.45-4.98-2.01-9.17,1.7-18.36,1.5-27.39-.93-11.07-2.98-17.25-10.47-19.03-21.63-.51-3.2-.72-6.48-.76-9.73-.11-7.99-.03-15.98-.04-23.98,0-.62,0-1.25,0-1.98h19.9c0,.74,0,1.42,0,2.1,0,7.86-.03,15.73.06,23.59.02,1.96.25,3.96.68,5.88,1.28,5.69,4.41,8.72,10.2,9.34,3.53.38,7.17.37,10.68-.06,5.15-.63,8.47-3.73,9.54-8.88.47-2.24.75-4.55.77-6.83.09-8.31.04-16.62.04-25.16Z"/>
      <path d="M290.09,26.13h19.9c0,.77,0,1.45,0,2.14,0,7.8-.04,15.6.05,23.4.02,2.09.3,4.21.75,6.26,1.16,5.31,4.42,8.49,9.8,9.09,3.46.39,7.04.42,10.5.04,6.09-.67,9.51-4.18,10.39-10.27.37-2.58.46-5.22.48-7.83.06-7.54.02-15.07.02-22.77h19.84c.04.24.12.47.12.71,0,9.53.09,19.05-.1,28.58-.06,2.96-.7,5.95-1.43,8.85-1.13,4.5-3.69,8.1-7.73,10.6.15.2.22.4.36.47,7.35,3.41,10.35,9.56,10.73,17.24.57,11.38-4.99,19.48-16.11,23.55-7.77,2.85-15.84,3.39-24.02,2.92-5.38-.31-10.68-1.15-15.73-3.13-11.16-4.37-16.76-12.67-17.36-24.68h19.92c.06.07.2.15.22.25,1.14,6.42,5.15,9.71,11.44,10.56,4.6.62,9.2.73,13.71-.53,5.86-1.62,8.68-5.64,7.98-11.34-.14-1.16-.6-2.37-1.2-3.38-1.51-2.56-2.57-2.84-5.48-2.36-9.13,1.48-18.26,1.39-27.22-1.04-11.32-3.07-17.57-10.79-19.05-22.21-.67-5.17-.63-10.45-.74-15.68-.12-5.75-.03-11.51-.03-17.26v-2.16Z"/>
      <path d="M75.71,66.27c-.22,11.17-6.26,19.92-16.99,23.68-12.95,4.53-26.16,4.59-39.19.32-9.73-3.19-15.77-10.13-18.14-20.11-1.88-7.9-1.87-15.85.13-23.72,2.47-9.7,8.49-16.46,18.01-19.55,13.03-4.23,26.25-4.23,39.19.34,10.41,3.67,16.06,11.37,16.98,22.41.03.36,0,.73,0,1.3-3.81,0-7.51,0-11.2,0-2.43,0-4.87.05-7.3-.04-.48-.02-1.26-.46-1.37-.85-1.6-5.76-5.97-8.03-11.32-8.94-4.65-.79-9.31-.71-13.91.45-6.33,1.6-9.64,5.99-10.17,12.2-.34,4.02-.2,8.2.56,12.16,1.29,6.74,6.39,9.54,12.73,10.28,4.85.56,9.72.56,14.43-1.08,3.72-1.3,6.36-3.69,7.55-7.56.16-.51.84-1.22,1.29-1.22,6.2-.08,12.39-.05,18.73-.05Z"/>
      <path d="M203.82,26.11h19.84c.73,4.06,1.45,8.13,2.2,12.19,1.64,8.91,3.28,17.82,4.97,26.72.22,1.18.67,2.33,1.12,3.45,2.36,5.96,6.64,7.68,13.02,6.46,3.38-.65,5.55-3.04,6.53-6.16,1.17-3.76,2.02-7.64,2.75-11.51,1.88-9.97,3.6-19.97,5.45-29.95.09-.49.78-1.23,1.2-1.23,6.2-.08,12.4-.05,18.91-.05-.46,2.65-.86,5.14-1.31,7.61-2.04,11.3-3.94,22.64-6.22,33.89-.8,3.96-2.22,7.87-3.88,11.57-3.29,7.31-9.13,11.69-17.01,13.22-6.41,1.24-12.86,1.25-19.27-.02-8.28-1.64-13.96-6.53-17.42-14.15-2.89-6.35-4.08-13.14-5.3-19.92-1.8-10.05-3.58-20.11-5.35-30.16-.11-.62-.14-1.25-.21-1.96Z"/>
      <path d="M173.71,0h19.71v91.03h-19.71V0Z"/>
      <circle cx="386.47" cy="37.63" r="12.98"/>
      <circle cx="386.47" cy="79.91" r="12.98"/>
    </g>
  </g>
</svg>