<?xml version="1.0" encoding="UTF-8"?>
<svg id="Layer_1" data-name="Layer 1" xmlns="http://www.w3.org/2000/svg" viewBox="0 0 595.28 841.89">
  <path d="m252.25,401.42c4.8,0,10.34-3.27,12.34-7.3.91-1.84.99-3.62.23-5.03-.91-1.67-2.92-2.63-5.51-2.63-4.8,0-10.34,3.27-12.34,7.3-.91,1.84-.99,3.63-.22,5.04.91,1.67,2.92,2.63,5.51,2.63Z"/>
  <path d="m297.03,384.29h-18.05l-41.02,60.35h-7.43l26.44-38.94h-97.1s-21.27-.18-32.63,16.45c-11.37,16.63,12.25,15.41,12.25,15.41h50.46s4.62-.06,2.21,3.52c-2.28,3.38-6.47,3.56-6.47,3.56h-70.6s-9.37,13.86-9.37,13.86h69.86s21.39.1,32.61-16.42c11.42-16.8-10.58-15.39-10.58-15.39h-50.81s-4.61-.17-2.28-3.49c2.45-3.49,6.54-3.64,6.54-3.64h78.45l-26.44,38.94h34.94c5.36,0,10.36-2.64,13.37-7.07,6.82-10.03,18.56-27.3,19.24-28.3l2.42-3.57,22.57-33.21,1.42-2.05Z"/>
  <path d="m292.8,458.49c21.78,0,75.56-52.8,75.56-52.8h-20.72s-43.92,38.95-54.73,38.95,3.85-38.95,3.85-38.95h-16.85s-22.91,52.8,12.89,52.8Z"/>
  <path d="m492.36,405.63c-43.26.07-62.16,23.53-64.14,26.14-.15.2-.24.32-.27.36l-8.43,12.51h-62.63s-2.88-.75-.8-3.82,5.27-3.3,5.27-3.3h52.34l7.79-10.8h-51.42s-4.32-.26-1.92-3.76,6.31-3.48,6.31-3.48l61.91.11,9.33-13.84h-62.34c-8.57,0-24.26,4.34-32.38,16.3-2.39,3.51-2.68,7.24-.09,10.06-5.17,1.26-10.8,5.79-13.44,9.68-3.1,4.56-3.86,8.39-2.28,11.38,2.11,3.99,7.99,5.41,12.79,5.41h79.97l15.5-22.84c1.19-1.62,12.76-16.23,40.21-16.26h.23l9.31-13.86h-.82Z"/>
</svg>